<svg width="6" height="7" viewBox="0 0 6 7" fill="none" xmlns="http://www.w3.org/2000/svg">
<g id="person_24px">
<path id="icon/social/person_24px" fill-rule="evenodd" clip-rule="evenodd" d="M2.89748 1.23648C2.36627 1.23648 1.93602 1.68157 1.93602 2.2311C1.93602 2.78062 2.36627 3.22571 2.89748 3.22571C3.42869 3.22571 3.85894 2.78062 3.85894 2.2311C3.85894 1.68157 3.42869 1.23648 2.89748 1.23648ZM3.37829 2.2311C3.37829 1.95758 3.16196 1.73379 2.89756 1.73379C2.63316 1.73379 2.41683 1.95758 2.41683 2.2311C2.41683 2.50462 2.63316 2.72841 2.89756 2.72841C3.16196 2.72841 3.37829 2.50462 3.37829 2.2311ZM4.33971 4.71764C4.29163 4.5411 3.5465 4.22034 2.89751 4.22034C2.25092 4.22034 1.5106 4.53861 1.45531 4.71764H4.33971ZM0.974609 4.71765C0.974609 4.05622 2.25576 3.72303 2.89754 3.72303C3.53932 3.72303 4.82047 4.05622 4.82047 4.71765V5.21496H0.974609V4.71765Z" fill="white"/>
</g>
</svg>
