<svg width="6" height="6" viewBox="0 0 6 6" fill="none" xmlns="http://www.w3.org/2000/svg">
<path d="M5.26935 2.97703C5.07554 2.56872 4.8449 2.23571 4.57743 1.97802L4.29691 2.25854C4.52566 2.47714 4.72491 2.76311 4.8972 3.11927C4.43849 4.06866 3.78737 4.51965 2.89753 4.51965C2.63042 4.51965 2.3844 4.47852 2.15946 4.39626L1.85551 4.70021C2.16793 4.84448 2.51527 4.91661 2.89753 4.91661C3.95718 4.91661 4.74779 4.36473 5.26935 3.26097C5.29032 3.21658 5.30119 3.16809 5.30119 3.119C5.30119 3.06991 5.29032 3.02142 5.26935 2.97703ZM4.91887 1.20925L4.68384 0.973938C4.67974 0.969837 4.67487 0.966584 4.66952 0.964364C4.66417 0.962145 4.65843 0.961002 4.65263 0.961002C4.64683 0.961002 4.64109 0.962145 4.63574 0.964364C4.63038 0.966584 4.62552 0.969837 4.62142 0.973938L4.01843 1.57665C3.68598 1.40684 3.31235 1.32194 2.89753 1.32194C1.83787 1.32194 1.04726 1.87382 0.525703 2.97758C0.504739 3.02197 0.493866 3.07046 0.493866 3.11955C0.493866 3.16864 0.504739 3.21713 0.525703 3.26152C0.734069 3.70038 0.984924 4.05214 1.27827 4.31682L0.694851 4.90007C0.686585 4.90834 0.681943 4.91956 0.681943 4.93125C0.681943 4.94294 0.686585 4.95415 0.694851 4.96243L0.930214 5.19779C0.938484 5.20605 0.949699 5.2107 0.961391 5.2107C0.973084 5.2107 0.984298 5.20605 0.992569 5.19779L4.91887 1.27166C4.92297 1.26756 4.92622 1.2627 4.92844 1.25734C4.93066 1.25199 4.9318 1.24625 4.9318 1.24045C4.9318 1.23465 4.93066 1.22892 4.92844 1.22356C4.92622 1.21821 4.92297 1.21334 4.91887 1.20925ZM0.897851 3.11927C1.35711 2.16988 2.00823 1.7189 2.89753 1.7189C3.19822 1.7189 3.47163 1.7705 3.71967 1.87542L3.33208 2.263C3.14853 2.16507 2.93835 2.12872 2.73257 2.15932C2.52678 2.18993 2.33628 2.28586 2.18917 2.43297C2.04206 2.58009 1.94612 2.77059 1.91552 2.97637C1.88492 3.18216 1.92126 3.39233 2.0192 3.57589L1.55928 4.03581C1.30473 3.81114 1.0853 3.50675 0.897851 3.11927ZM2.25798 3.11927C2.25808 3.02205 2.28111 2.92623 2.3252 2.83958C2.36928 2.75294 2.43319 2.67791 2.51172 2.6206C2.59025 2.56329 2.6812 2.52532 2.77716 2.50976C2.87313 2.4942 2.97141 2.5015 3.06403 2.53106L2.28726 3.30783C2.26779 3.24687 2.25791 3.18326 2.25798 3.11927Z" fill="white"/>
<path d="M2.87543 3.73674C2.85636 3.73674 2.83756 3.73586 2.81892 3.73415L2.52771 4.02536C2.70286 4.09244 2.89369 4.10734 3.07714 4.06828C3.26058 4.02921 3.42878 3.93784 3.5614 3.80522C3.69403 3.6726 3.7854 3.5044 3.82446 3.32095C3.86353 3.13751 3.84862 2.94668 3.78154 2.77152L3.49033 3.06274C3.49204 3.08137 3.49292 3.10017 3.49292 3.11925C3.49297 3.20035 3.47703 3.28067 3.44601 3.3556C3.41499 3.43054 3.36951 3.49863 3.31216 3.55598C3.25481 3.61332 3.18673 3.65881 3.11179 3.68982C3.03685 3.72084 2.95654 3.73678 2.87543 3.73674Z" fill="white"/>
</svg>
